<svg width="249" height="279" viewBox="0 0 249 279" fill="none" xmlns="http://www.w3.org/2000/svg">
<g clip-path="url(#clip0_30_692)">
<path d="M180.775 158.321V235.393L191.609 256.403L192.434 258.001H235.182L236.046 158.321H180.775Z" fill="#E6E6E6"/>
<path opacity="0.1" d="M180.775 158.321V235.393L191.609 256.403L192.274 158.321H180.775Z" fill="black"/>
<path d="M77.5743 156.266V233.338L66.7403 254.348L65.9157 255.945H23.1673L22.3036 156.266H77.5743Z" fill="#E6E6E6"/>
<path opacity="0.1" d="M77.5743 156.266V233.338L66.7403 254.348L66.0754 156.266H77.5743Z" fill="black"/>
<path d="M249 154.725V159.349H16.6902V152.669L38.2802 139.31H230.001L249 154.725Z" fill="#E6E6E6"/>
<path opacity="0.1" d="M249 154.725V159.349H16.6902V152.669L249 154.725Z" fill="black"/>
<path d="M49.9391 177.846H39.5756L35.2576 174.249H54.6889L49.9391 177.846Z" fill="#3F3D56"/>
<path d="M49.9391 192.747H39.5756L35.2576 189.15H54.6889L49.9391 192.747Z" fill="#3F3D56"/>
<path d="M49.9391 213.813H39.5756L35.2576 210.216H54.6889L49.9391 213.813Z" fill="#3F3D56"/>
<path d="M49.9391 234.879H39.5756L35.2576 231.283H54.6889L49.9391 234.879Z" fill="#3F3D56"/>
<path d="M208.41 179.901H218.774L223.092 176.305H203.661L208.41 179.901Z" fill="#3F3D56"/>
<path d="M208.41 194.802H218.774L223.092 191.205H203.661L208.41 194.802Z" fill="#3F3D56"/>
<path d="M208.41 215.868H218.774L223.092 212.272H203.661L208.41 215.868Z" fill="#3F3D56"/>
<path d="M208.41 236.934H218.774L223.092 233.338H203.661L208.41 236.934Z" fill="#3F3D56"/>
<path d="M215.468 50.1839H128.223C127.79 50.1838 127.361 50.2854 126.961 50.4826C126.56 50.6799 126.197 50.9691 125.89 51.3337C125.584 51.6983 125.341 52.1311 125.175 52.6075C125.009 53.0839 124.924 53.5944 124.924 54.11V124.042C124.924 124.558 125.009 125.068 125.175 125.545C125.341 126.021 125.584 126.454 125.89 126.818C126.197 127.183 126.56 127.472 126.961 127.67C127.361 127.867 127.79 127.968 128.223 127.968H161.342L160.101 137.395C160.101 137.395 153.01 141.877 157.996 142.009C162.982 142.141 186.47 142.009 186.47 142.009C186.47 142.009 191.013 142.009 183.811 137.263L182.644 127.968H215.468C215.901 127.968 216.33 127.867 216.73 127.67C217.131 127.472 217.495 127.183 217.801 126.818C218.107 126.454 218.35 126.021 218.516 125.545C218.682 125.068 218.767 124.558 218.767 124.042V54.11C218.767 53.5944 218.682 53.0839 218.516 52.6075C218.35 52.1311 218.107 51.6983 217.801 51.3337C217.495 50.9691 217.131 50.6799 216.73 50.4826C216.33 50.2854 215.901 50.1838 215.468 50.1839Z" fill="#3F3D56"/>
<path d="M215.61 54.3368H128.081V112.609H215.61V54.3368Z" fill="#F2F2F2"/>
<path d="M171.846 53.1503C172.151 53.1503 172.4 52.8551 172.4 52.4911C172.4 52.127 172.151 51.8319 171.846 51.8319C171.54 51.8319 171.292 52.127 171.292 52.4911C171.292 52.8551 171.54 53.1503 171.846 53.1503Z" fill="#F2F2F2"/>
<path d="M171.846 125.134C173.008 125.134 173.951 124.012 173.951 122.629C173.951 121.245 173.008 120.124 171.846 120.124C170.683 120.124 169.74 121.245 169.74 122.629C169.74 124.012 170.683 125.134 171.846 125.134Z" fill="#F2F2F2"/>
<path d="M168.565 149.128V150.447H108.958V149.392L109.039 149.128L110.509 144.382H167.346L168.565 149.128Z" fill="#3F3D56"/>
<path d="M191.504 147.838C191.396 148.39 190.986 148.973 190.059 149.524C186.736 151.501 179.977 148.996 179.977 148.996C179.977 148.996 174.77 147.942 174.77 145.173C174.916 145.054 175.068 144.946 175.226 144.85C176.624 143.97 181.257 141.8 189.473 144.942C190.078 145.168 190.618 145.59 191.034 146.16C191.218 146.375 191.357 146.64 191.439 146.931C191.52 147.223 191.543 147.534 191.504 147.838Z" fill="#3F3D56"/>
<path opacity="0.1" d="M191.504 147.838C187.436 149.693 183.809 149.831 180.088 146.755C178.68 145.517 176.976 144.849 175.226 144.85C176.624 143.97 181.257 141.8 189.473 144.942C190.078 145.168 190.618 145.59 191.034 146.16C191.218 146.375 191.357 146.64 191.439 146.931C191.52 147.223 191.543 147.534 191.504 147.838Z" fill="black"/>
<path d="M186.403 146.755C187.199 146.755 187.843 146.519 187.843 146.228C187.843 145.937 187.199 145.701 186.403 145.701C185.608 145.701 184.963 145.937 184.963 146.228C184.963 146.519 185.608 146.755 186.403 146.755Z" fill="#F2F2F2"/>
<path opacity="0.1" d="M168.565 149.128V150.447H108.958V149.392L109.039 149.128H168.565Z" fill="black"/>
<path d="M33.1427 6.70888e-05C32.5378 -0.0590356 31.932 0.101988 31.4057 0.461801C30.8889 0.882916 30.5632 1.62067 30.2307 2.30718C28.9596 4.96336 27.2387 7.27646 25.177 9.09995C23.6754 10.409 21.7663 12.0411 22.0232 14.4546C22.1587 15.2516 22.4062 16.0158 22.7552 16.7149C24.1404 20.0424 27.9207 22.6139 27.5488 26.4108C28.9251 23.6691 27.0842 22.3134 28.4605 19.5717C29.116 18.2661 30.2546 16.7922 31.2442 17.6122C31.5755 17.8867 31.7931 18.3792 32.1381 18.62C32.9613 19.1949 33.8371 18.0959 34.5657 17.3176C37.0785 14.6335 40.6519 15.3366 43.7787 16.1729C45.2549 16.5678 46.8763 17.0858 47.749 18.7646C48.8963 20.9719 46.6589 23.3558 46.0936 25.8514C46.0474 26.0641 46.0452 26.2868 46.0872 26.5007C46.1292 26.7146 46.2141 26.9132 46.3346 27.0795C46.4551 27.2458 46.6077 27.3749 46.7793 27.4558C46.951 27.5366 47.1365 27.5668 47.32 27.5438C48.2582 27.4336 49.3697 27.3434 49.4252 26.8535C50.6056 26.9035 52.052 26.7444 52.5578 25.2818C52.7124 24.7031 52.7941 24.1003 52.8003 23.4932C52.9859 21.0363 53.8622 18.7949 54.4427 16.4566C55.0233 14.1182 55.2757 11.3778 54.296 9.30462C53.9464 8.61483 53.514 7.98948 53.0125 7.44836C47.4529 1.04634 40.1434 -0.00943591 33.1427 6.70888e-05Z" fill="#2F2E41"/>
<path d="M28.7579 31.2066C28.7579 31.2066 29.967 43.1962 25.5336 44.1553C21.1003 45.1145 29.564 61.4202 29.564 61.4202L49.7157 64.2977L44.8793 45.1145C44.8793 45.1145 41.655 43.6757 43.6702 34.0841C45.6854 24.4925 28.7579 31.2066 28.7579 31.2066Z" fill="#FFB8B8"/>
<path d="M16.4654 237.187L18.0777 263.564H26.5411L24.1232 237.187H16.4654Z" fill="#FFB8B8"/>
<path d="M78.5326 187.31L79.7416 209.371L89.0117 204.575L85.3841 186.351L78.5326 187.31Z" fill="#FFB8B8"/>
<path d="M10.4199 136.475C10.4199 136.475 10.8229 164.29 13.2411 173.402C15.6593 182.514 15.2563 182.994 14.8532 184.433C14.4502 185.871 14.0472 184.912 14.0472 187.31C14.0472 189.708 13.2411 227.595 14.0472 230.952C14.8532 234.309 11.629 240.064 14.0472 240.544C16.4654 241.023 27.7503 240.544 28.1534 237.666C28.5564 234.789 24.9291 233.83 26.5412 231.911C28.1534 229.993 30.5716 190.667 30.5716 190.667L36.2141 163.331L46.6929 148.944H68.8598L75.7114 180.596C75.7114 180.596 72.8901 189.708 74.9053 189.708C76.9205 189.708 89.0115 192.586 89.0115 182.035C89.0115 171.484 84.9812 140.311 84.1751 139.352C83.369 138.393 84.5781 135.036 83.369 133.597C82.1599 132.158 68.0537 122.087 62.8143 120.169C57.5748 118.251 50.2248 115.967 50.2248 115.967L10.4199 136.475Z" fill="#2F2E41"/>
<path d="M89.0115 200.738C89.0115 200.738 82.966 198.341 80.1448 205.534C77.3235 212.728 78.5326 214.646 78.5326 214.646C78.5326 214.646 87.8024 218.483 89.4145 216.565C90.1159 215.73 92.3432 215.44 94.6358 215.379C98.1274 215.286 99.0564 209.407 95.7588 208.039C95.6604 207.998 95.5608 207.962 95.46 207.932C92.2358 206.973 89.0115 200.738 89.0115 200.738Z" fill="#2F2E41"/>
<path d="M37.8262 39.1197C44.5039 39.1197 49.9172 32.6783 49.9172 24.7323C49.9172 16.7863 44.5039 10.3449 37.8262 10.3449C31.1485 10.3449 25.7352 16.7863 25.7352 24.7323C25.7352 32.6783 31.1485 39.1197 37.8262 39.1197Z" fill="#FFB8B8"/>
<path d="M22.1079 50.1501C22.1079 50.1501 41.8565 54.9459 46.6929 47.2726C51.5294 39.5993 53.5445 68.8537 53.5445 68.8537L55.9627 99.5469L52.3354 116.332C52.3354 116.332 33.3928 134.556 27.3473 135.995C21.3018 137.434 12.032 138.393 12.032 138.393C12.032 138.393 14.8533 85.1595 14.8533 84.2003C14.8533 83.2412 22.1079 50.1501 22.1079 50.1501Z" fill="#6C63FF"/>
<path d="M28.1139 41.1557C28.1139 41.1557 23.72 38.1606 22.5109 41.038C21.3018 43.9155 10.0168 51.1092 8.80772 51.1092C7.59862 51.1092 11.2259 90.9144 9.61379 95.7103C8.00165 100.506 0.344011 135.515 4.77739 138.393C9.21076 141.27 5.98649 135.515 10.4199 142.709C14.8532 149.903 36.6171 149.903 37.8262 147.025C39.0353 144.148 28.1534 122.567 30.1685 102.424C32.1837 82.282 35.408 54.4663 32.5867 50.6297C29.7655 46.793 28.1139 41.1557 28.1139 41.1557Z" fill="#2F2E41"/>
<path d="M42.6626 44.3951L43.224 42.0962C43.224 42.0962 59.9931 48.7114 60.7991 53.0276C61.6052 57.3438 61.2022 87.5574 58.3809 89.9553C55.5597 92.3532 51.5293 96.1899 54.3506 101.945C57.1718 107.7 60.3961 113.934 62.8143 114.414C65.2325 114.894 69.6659 118.251 68.4568 121.608C67.2477 124.965 52.7385 118.73 52.7385 118.73C52.7385 118.73 43.0656 110.098 43.4687 96.6694C43.8717 83.2411 42.6626 44.3951 42.6626 44.3951Z" fill="#2F2E41"/>
<path d="M56.7688 100.986L47.096 122.567C47.096 122.567 32.9898 139.832 41.0505 141.75C49.1112 143.668 53.5445 125.924 53.5445 125.924L64.0234 108.179L56.7688 100.986Z" fill="#FFB8B8"/>
<path d="M33.7317 3.7645C33.2444 3.72153 32.7562 3.83419 32.3177 4.09085C31.9212 4.43542 31.5945 4.88104 31.3613 5.39515C30.2863 7.31931 28.885 8.95468 27.2473 10.1962C26.0249 11.1214 24.4708 12.275 24.68 13.9808C24.7935 14.5528 24.9956 15.0945 25.2758 15.5784C26.4074 17.9541 26.8579 20.7036 26.5591 23.4111L29.9202 17.5976C30.4538 16.6748 31.3807 15.6331 32.1862 16.2126C32.456 16.4067 32.6331 16.7547 32.9139 16.925C33.584 17.3313 34.297 16.5546 34.8901 16.0044C36.9356 14.1073 39.8445 14.6043 42.3899 15.1954C43.5916 15.4744 44.9115 15.8406 45.6218 17.0271C46.8023 18.999 45.5697 21.8483 46.2586 24.1263C46.4515 23.9656 46.6153 23.7605 46.7403 23.5231C46.8653 23.2857 46.949 23.0209 46.9864 22.7443C47.9473 22.7796 49.1247 22.6672 49.5364 21.6334C49.6617 21.2283 49.7284 20.8009 49.7338 20.3693C49.8849 18.6328 50.5983 17.0486 51.0708 15.3958C51.5434 13.7431 51.7489 11.8062 50.9514 10.3409C50.6596 9.84439 50.3075 9.40223 49.9066 9.02889C45.3809 4.50399 39.4306 3.75778 33.7317 3.7645Z" fill="#2F2E41"/>
<path d="M56.7688 51.1093L60.5239 52.2953C60.5239 52.2953 69.2629 78.9249 67.2477 97.149C65.2325 115.373 64.0234 111.536 64.0234 111.536C64.0234 111.536 60.7991 102.904 53.5445 104.822L56.7688 51.1093Z" fill="#2F2E41"/>
<path d="M17.0238 260.078C16.0519 261.649 16.2467 263.896 15.3858 265.556C14.6396 266.996 13.2332 267.751 12.2997 269.026C12.0019 269.45 11.7364 269.905 11.5063 270.384C10.6404 272.11 9.93663 274.322 10.7894 276.057C11.4754 277.453 12.9174 277.998 14.2398 278.37C15.9113 278.84 17.648 279.216 19.3388 278.857C21.0296 278.498 22.682 277.266 23.2849 275.352C23.4033 274.871 23.5442 274.398 23.7068 273.936C24.6232 271.789 27.4977 271.766 28.4356 269.632C29.0919 268.139 28.4886 266.334 27.8855 264.809L26.0435 260.153C25.4322 258.608 22.9542 259.496 21.6623 259.126C19.9775 258.643 18.2358 258.111 17.0238 260.078Z" fill="#2F2E41"/>
<path d="M3.5683 110.577L20.4957 141.75C20.4957 141.75 30.9746 157.576 34.1989 150.382C37.4232 143.189 22.9139 131.199 22.9139 131.199L12.032 107.22L3.5683 110.577Z" fill="#FFB8B8"/>
<path d="M12.032 52.0684L8.80773 51.1093C8.80773 51.1093 2.35919 53.5072 0.747056 63.5784C-0.865078 73.6496 0.34402 113.934 2.35919 114.414C4.37436 114.894 12.3121 107.4 13.5827 108.988C14.8532 110.577 10.8229 102.424 12.032 98.1082C13.2411 93.7919 12.032 52.0684 12.032 52.0684Z" fill="#2F2E41"/>
<path d="M163.561 73.4754H153.144V76.4595H163.561V73.4754Z" fill="#6C63FF"/>
<path d="M199.634 73.4754H195.969V76.4595H199.634V73.4754Z" fill="#6C63FF"/>
<path d="M206.965 73.4754H203.299V76.4595H206.965V73.4754Z" fill="#6C63FF"/>
<path d="M192.111 73.4754H167.226V76.4595H192.111V73.4754Z" fill="#6C63FF"/>
<path d="M150.444 92.757H140.027V95.741H150.444V92.757Z" fill="#6C63FF"/>
<path d="M186.517 92.757H182.852V95.741H186.517V92.757Z" fill="#6C63FF"/>
<path d="M193.847 92.757H190.182V95.741H193.847V92.757Z" fill="#6C63FF"/>
<path d="M178.993 92.757H154.109V95.741H178.993V92.757Z" fill="#6C63FF"/>
<path d="M193.461 80.1321H183.044V83.1162H193.461V80.1321Z" fill="#6C63FF"/>
<path d="M207.543 80.1321H197.126V83.1162H207.543V80.1321Z" fill="#6C63FF"/>
<path d="M143.692 80.1321H140.027V83.1162H143.692V80.1321Z" fill="#6C63FF"/>
<path d="M151.022 80.1321H147.357V83.1162H151.022V80.1321Z" fill="#6C63FF"/>
<path d="M179.572 80.1321H154.687V83.1162H179.572V80.1321Z" fill="#6C63FF"/>
<path d="M171.856 86.5593H161.439V89.5434H171.856V86.5593Z" fill="#6C63FF"/>
<path d="M157.774 86.5593H147.357V89.5434H157.774V86.5593Z" fill="#6C63FF"/>
<path d="M143.692 86.5593H140.027V89.5434H143.692V86.5593Z" fill="#6C63FF"/>
<path d="M207.543 86.5593H203.878V89.5434H207.543V86.5593Z" fill="#6C63FF"/>
<path d="M200.213 86.5593H175.328V89.5434H200.213V86.5593Z" fill="#6C63FF"/>
</g>
<defs>
<clipPath id="clip0_30_692">
<rect width="249" height="279" fill="white"/>
</clipPath>
</defs>
</svg>
